# xmcd
#
# Track frame offsets: 
#        150
#        22410
#        43151
#        69941
#        97187
#        121861
#        146526
#        178364
#        205058
#
# Disc length: 3099 seconds
#
# Revision: 0
# Processed by: cddbd v1.5.2PL0 Copyright (c) Steve Scherf et al.
# Submitted via: ExactAudioCopy v1.0b3
#
DISCID=880c1909
DTITLE=Le Man - O Hai Dau Noi Nho
DYEAR=2013
DGENRE=
TTITLE0=O hai dau noi nho
TTITLE1=Le Man, Dang Duong - Em van cho anh
TTITLE2=Dieu vi dam la em
TTITLE3=Ve Ha Tinh nguoi oi
TTITLE4=Nho dem gia ban
TTITLE5=Cau doi cau cho
TTITLE6=Le Man, Vu Thang Loi - Gian ma thuong
TTITLE7=Song doi
TTITLE8=Neo dau ben que
EXTD=
EXTT0=
EXTT1=
EXTT2=
EXTT3=
EXTT4=
EXTT5=
EXTT6=
EXTT7=
EXTT8=
PLAYORDER=
